<svg width="850" height="850" xmlns="http://www.w3.org/2000/svg" version="1.1">
 <g>
  <path d="m464.16327,0q-32,0 -55,22t-25,55t20.5,58t56,27t58.5,-20.5t27,-56t-20.5,-59t-56.5,-26.5l-5,0zm-87,95l-232,118q20,20 25,48l231,-118q-19,-20 -24,-48zm167,27q-13,25 -38,38l183,184q13,-25 39,-38l-184,-184zm-142,22l-135,265l40,40l143,-280q-28,-5 -48,-25zm104,16q-22,11 -46,10l-8,-1l21,132l56,9l-23,-150zm-426,34q-32,0 -55,22.5t-25,55t20.5,58t56.5,27t59,-21t26.5,-56t-21,-58.5t-55.5,-27l-6,0zm90,68q1,9 1,18q-1,19 -10,35l132,21l26,-50l-149,-24zm225,36l-26,51l311,49q-1,-8 -1,-17q1,-19 10,-36l-294,-47zm372,6q-32,1 -55,23t-24.5,55t21,58t56,27t58.5,-20.5t27,-56.5t-20.5,-59t-56.5,-27l-6,0zm-606,13q-13,25 -39,38l210,210l51,-25l-222,-223zm-40,38q-21,11 -44,10l-9,-1l40,256q21,-10 45,-9l8,1l-40,-257zm364,22l48,311q21,-10 44,-9l10,1l-46,-294l-56,-9zm195,23l-118,60l8,56l135,-68q-20,-20 -25,-48zm26,49l-119,231q28,5 48,25l119,-231q-28,-5 -48,-25zm-475,29l-68,134q28,5 48,25l60,-119l-40,-40zm262,17l-281,143q19,20 24,48l265,-135l-8,-56zm-55,100l-51,25l106,107q13,-25 39,-38l-94,-94zm-291,24q-32,0 -55.5,22.5t-25,55t21,57.5t56,27t58.5,-20.5t27,-56t-20.5,-58.5t-56.5,-27l-5,0zm89,68q2,9 1,18q-1,19 -9,35l256,41q-1,-9 -1,-18q1,-18 10,-35l-257,-41zm335,0q-32,0 -55,22.5t-24.5,55t20.5,58t56,27t59,-21t27,-56t-20.5,-58.5t-56.5,-27l-6,0z"/>
 </g>
</svg>