<svg xmlns="http://www.w3.org/2000/svg" viewBox="0 0 101.25 37.29"><title>logo</title><path d="M.38,30.29H1.62l2.11,3.82.7,1.45h.05c-.06-.71-.16-1.57-.16-2.32v-3H5.47v6.79H4.23L2.12,33.26l-.7-1.45h0c.06.72.16,1.54.16,2.3v3H.38Z" style="fill:#606c76"/><path d="M12,30.29h1.2v6.79H12Z" style="fill:#606c76"/><path d="M19.35,33.71c0-2.23,1.39-3.55,3.11-3.55a2.73,2.73,0,0,1,2,.86l-.65.78a1.76,1.76,0,0,0-1.29-.59c-1.1,0-1.9.93-1.9,2.46s.74,2.49,1.88,2.49a1.93,1.93,0,0,0,1.45-.7l.64.76a2.71,2.71,0,0,1-2.14,1C20.7,37.21,19.35,36,19.35,33.71Z" style="fill:#606c76"/><path d="M30.48,30.29h4.09v1H31.68V33h2.45v1H31.68v2h3v1H30.48Z" style="fill:#606c76"/><path d="M40.85,30.29h1.81A3,3,0,0,1,46,33.66c0,2.25-1.23,3.42-3.25,3.42H40.85Zm1.74,5.82c1.36,0,2.15-.78,2.15-2.45s-.79-2.4-2.15-2.4h-.53v4.85Z" style="fill:#606c76"/><path d="M52.14,30.29h2.17c1.4,0,2.42.43,2.42,1.67a1.52,1.52,0,0,1-.94,1.47v0a1.57,1.57,0,0,1,1.3,1.62c0,1.36-1.11,2-2.61,2H52.14Zm2.06,2.8c.95,0,1.35-.37,1.35-1s-.44-.9-1.32-.9h-.89v1.86Zm.16,3c1,0,1.55-.35,1.55-1.12s-.54-1-1.55-1h-1v2.15Z" style="fill:#606c76"/><path d="M62.92,36.4a.77.77,0,1,1,1.54,0,.77.77,0,1,1-1.54,0Z" style="fill:#606c76"/><path d="M70.41,33.66c0-2.2,1.23-3.5,3-3.5s3,1.31,3,3.5-1.22,3.55-3,3.55S70.41,35.86,70.41,33.66Zm4.75,0c0-1.53-.69-2.45-1.75-2.45s-1.76.92-1.76,2.45.69,2.5,1.76,2.5S75.16,35.18,75.16,33.66Z" style="fill:#606c76"/><path d="M82.56,30.29h2.29c1.42,0,2.5.5,2.5,2s-1.08,2.13-2.5,2.13H83.77v2.65H82.56Zm2.17,3.17c.93,0,1.44-.38,1.44-1.16s-.51-1-1.44-1h-1v2.21Zm-.1.64.87-.71,2.12,3.69H86.27Z" style="fill:#606c76"/><path d="M93.14,33.71a3.22,3.22,0,0,1,3.22-3.55,2.82,2.82,0,0,1,2,.86l-.65.78a1.85,1.85,0,0,0-1.37-.59c-1.2,0-2,.93-2,2.46s.72,2.49,2.08,2.49a1.54,1.54,0,0,0,1-.3V34.39H96.15v-1h2.36v3a3.07,3.07,0,0,1-2.17.81C94.51,37.21,93.14,36,93.14,33.71Z" style="fill:#606c76"/><path d="M14.89,26.42h-.15L.8,23.48a.72.72,0,0,1-.56-.69V2.39A.74.74,0,0,1,.5,1.84a.73.73,0,0,1,.59-.14L15,4.63a.7.7,0,0,1,.56.69v20.4a.7.7,0,0,1-.26.54A.66.66,0,0,1,14.89,26.42ZM1.64,22.22l12.55,2.64v-19L1.64,3.25Z" style="fill:#00a1cc"/><path d="M14.89,26.42a.65.65,0,0,1-.44-.16.67.67,0,0,1-.26-.54V5.32a.7.7,0,0,1,.55-.69l14-2.93a.7.7,0,0,1,.84.69v20.4a.71.71,0,0,1-.55.69L15,26.41Zm.7-20.54v19l12.54-2.64v-19ZM28.83,22.79h0Z" style="fill:#00a1cc"/><path d="M87,26.55a13.17,13.17,0,1,1,13.17-13.17A13.19,13.19,0,0,1,87,26.55ZM87,1.61A11.77,11.77,0,1,0,98.73,13.38,11.78,11.78,0,0,0,87,1.61Z" style="fill:#00a1cc"/><path d="M87,18.45A5.08,5.08,0,1,1,92,13.38,5.08,5.08,0,0,1,87,18.45ZM87,9.7a3.68,3.68,0,1,0,3.68,3.68A3.68,3.68,0,0,0,87,9.7Z" style="fill:#00a1cc"/><path d="M60,22.7H35.62a.71.71,0,0,1-.7-.7V4.76a.7.7,0,0,1,.7-.7H60a.7.7,0,0,1,.7.7V22A.7.7,0,0,1,60,22.7ZM36.32,21.3h23V5.46h-23Z" style="fill:#00a1cc"/><path d="M68.58,22.7a.68.68,0,0,1-.31-.08l-8.54-4.29a.7.7,0,0,1-.39-.62V9.05a.7.7,0,0,1,.39-.63l8.54-4.29a.7.7,0,0,1,1,.63V22a.68.68,0,0,1-.33.59A.7.7,0,0,1,68.58,22.7Zm-7.84-5.42,7.14,3.58v-15L60.74,9.48Z" style="fill:#00a1cc"/></svg>