<svg xmlns="http://www.w3.org/2000/svg" viewBox="0 0 102.13 41.38"><title>logo</title><path d="M1.73,32.77H4.26c1.63,0,2.83.49,2.83,1.95A1.77,1.77,0,0,1,6,36.43v0a1.81,1.81,0,0,1,1.52,1.88c0,1.59-1.3,2.33-3,2.33H1.73ZM4.14,36c1.1,0,1.57-.43,1.57-1.12s-.51-1.06-1.54-1.06h-1V36Zm.18,3.55c1.17,0,1.82-.41,1.82-1.3s-.63-1.2-1.82-1.2H3.14v2.5Z" style="fill:#9b4dca"/><path d="M13.87,36.7c0-2.57,1.43-4.08,3.5-4.08s3.49,1.52,3.49,4.08-1.43,4.13-3.49,4.13S13.87,39.26,13.87,36.7Zm5.55,0c0-1.78-.81-2.86-2.05-2.86s-2.05,1.08-2.05,2.86.8,2.91,2.05,2.91S19.42,38.47,19.42,36.7Z" style="fill:#9b4dca"/><path d="M27.37,36.7c0-2.57,1.43-4.08,3.49-4.08s3.5,1.52,3.5,4.08-1.43,4.13-3.5,4.13S27.37,39.26,27.37,36.7Zm5.54,0c0-1.78-.8-2.86-2-2.86s-2.05,1.08-2.05,2.86.81,2.91,2.05,2.91S32.91,38.47,32.91,36.7Z" style="fill:#9b4dca"/><path d="M41.28,32.77h4.79V34H42.69V36.2h2.88v1.18H42.69v3.31H41.28Z" style="fill:#9b4dca"/><path d="M52.78,32.77h1.41v7.92H52.78Z" style="fill:#9b4dca"/><path d="M61.53,32.77h1.41v6.74h3.29v1.18h-4.7Z" style="fill:#9b4dca"/><path d="M72.1,39.67l.82-1a3.1,3.1,0,0,0,2.06.9c.89,0,1.38-.4,1.38-1s-.51-.86-1.23-1.16L74.05,37a2.29,2.29,0,0,1-1.6-2.11,2.41,2.41,0,0,1,2.66-2.23,3.47,3.47,0,0,1,2.44,1l-.72.89a2.55,2.55,0,0,0-1.72-.68c-.75,0-1.24.35-1.24.93s.6.85,1.26,1.12l1.07.45a2.2,2.2,0,0,1,1.6,2.14c0,1.28-1.07,2.35-2.85,2.35A4.07,4.07,0,0,1,72.1,39.67Z" style="fill:#9b4dca"/><path d="M84.57,32.77H86v7.92h-1.4Z" style="fill:#9b4dca"/><path d="M92.9,36.75c0-2.59,1.62-4.13,3.63-4.13a3.18,3.18,0,0,1,2.28,1l-.75.91a2,2,0,0,0-1.5-.69c-1.29,0-2.21,1.09-2.21,2.87s.85,2.9,2.18,2.9a2.23,2.23,0,0,0,1.69-.81l.75.88a3.15,3.15,0,0,1-2.5,1.15C94.48,40.83,92.9,39.38,92.9,36.75Z" style="fill:#9b4dca"/><path d="M15.67,26.75h-.15L1.58,23.81A.7.7,0,0,1,1,23.12V2.72A.71.71,0,0,1,1.87,2L15.81,5a.72.72,0,0,1,.56.69v20.4a.74.74,0,0,1-.26.55A.71.71,0,0,1,15.67,26.75ZM2.42,22.56,15,25.19v-19L2.42,3.58Z" style="fill:#9b4dca"/><path d="M15.67,26.75a.74.74,0,0,1-.45-.15.73.73,0,0,1-.25-.55V5.65A.71.71,0,0,1,15.52,5L29.47,2a.68.68,0,0,1,.58.15.67.67,0,0,1,.26.54v20.4a.7.7,0,0,1-.56.69L15.81,26.74Zm.7-20.53v19l12.54-2.63v-19Zm13.24,16.9h0Z" style="fill:#9b4dca"/><path d="M87.93,26.88A13.17,13.17,0,1,1,101.1,13.71,13.18,13.18,0,0,1,87.93,26.88Zm0-24.94A11.77,11.77,0,1,0,99.7,13.71,11.78,11.78,0,0,0,87.93,1.94Z" style="fill:#9b4dca"/><path d="M87.93,18.78A5.07,5.07,0,1,1,93,13.71,5.08,5.08,0,0,1,87.93,18.78Zm0-8.74a3.67,3.67,0,1,0,3.68,3.67A3.67,3.67,0,0,0,87.93,10Z" style="fill:#9b4dca"/><path d="M60.82,23H36.4a.7.7,0,0,1-.7-.7V5.09a.7.7,0,0,1,.7-.7H60.82a.7.7,0,0,1,.7.7V22.33A.7.7,0,0,1,60.82,23ZM37.1,21.63h23V5.79h-23Z" style="fill:#9b4dca"/><path d="M69.36,23a.68.68,0,0,1-.31-.08L60.5,18.66a.69.69,0,0,1-.38-.62V9.38a.71.71,0,0,1,.38-.63l8.55-4.29a.72.72,0,0,1,.68,0,.7.7,0,0,1,.33.6V22.33a.7.7,0,0,1-.33.6A.79.79,0,0,1,69.36,23Zm-7.84-5.42,7.14,3.58v-15L61.52,9.81Z" style="fill:#9b4dca"/></svg>