<svg xmlns="http://www.w3.org/2000/svg" viewBox="0 0 101.25 37.29"><title>logo</title><path d="M1.55,30.26H2.78l2.1,3.81.7,1.44h0c-.06-.7-.16-1.56-.16-2.31V30.26H6.61V37H5.38l-2.1-3.81-.7-1.44h0c.06.72.15,1.53.15,2.29v3H1.55Z" style="fill:#606c76"/><path d="M13.09,30.26h1.2V37h-1.2Z" style="fill:#606c76"/><path d="M20.41,33.67c0-2.22,1.38-3.53,3.1-3.53a2.66,2.66,0,0,1,1.95.86l-.64.77a1.78,1.78,0,0,0-1.29-.59c-1.1,0-1.89.93-1.89,2.45s.73,2.48,1.86,2.48A1.94,1.94,0,0,0,25,35.42l.64.75a2.68,2.68,0,0,1-2.13,1C21.76,37.15,20.41,35.91,20.41,33.67Z" style="fill:#606c76"/><path d="M31.48,30.26h4.07v1H32.68V33h2.43v1H32.68v2h3v1H31.48Z" style="fill:#606c76"/><path d="M41.79,30.26H43.6a3,3,0,0,1,3.3,3.36c0,2.24-1.23,3.41-3.24,3.41H41.79Zm1.73,5.8c1.36,0,2.14-.78,2.14-2.44s-.78-2.38-2.14-2.38H43v4.82Z" style="fill:#606c76"/><path d="M53,30.26h2.17c1.39,0,2.41.43,2.41,1.67a1.53,1.53,0,0,1-.94,1.47v0A1.55,1.55,0,0,1,58,35c0,1.36-1.11,2-2.6,2H53Zm2.06,2.8c.94,0,1.35-.37,1.35-1s-.45-.9-1.32-.9h-.89v1.86Zm.16,3c1,0,1.55-.35,1.55-1.11s-.54-1-1.55-1h-1v2.14Z" style="fill:#606c76"/><path d="M63.73,36.35a.77.77,0,1,1,1.54,0,.77.77,0,1,1-1.54,0Z" style="fill:#606c76"/><path d="M71.19,33.62c0-2.19,1.22-3.48,3-3.48s3,1.3,3,3.48-1.22,3.53-3,3.53S71.19,35.81,71.19,33.62Zm4.73,0c0-1.52-.69-2.44-1.75-2.44s-1.75.92-1.75,2.44.69,2.49,1.75,2.49S75.92,35.14,75.92,33.62Z" style="fill:#606c76"/><path d="M83.27,30.26h2.28c1.41,0,2.49.5,2.49,2S87,34.39,85.55,34.39H84.47V37h-1.2Zm2.16,3.16c.92,0,1.43-.38,1.43-1.15s-.51-1.05-1.43-1.05h-1v2.2Zm-.1.64.86-.71L88.31,37H87Z" style="fill:#606c76"/><path d="M93.79,33.67A3.2,3.2,0,0,1,97,30.14,2.78,2.78,0,0,1,99,31l-.65.77A1.81,1.81,0,0,0,97,31.18c-1.2,0-2,.93-2,2.45s.72,2.48,2.07,2.48a1.54,1.54,0,0,0,1-.3V34.35H96.78v-1h2.36v3a3.08,3.08,0,0,1-2.16.8C95.15,37.15,93.79,35.91,93.79,33.67Z" style="fill:#606c76"/><path d="M15.48,26.35h-.15L1.39,23.41a.71.71,0,0,1-.56-.69V2.32a.74.74,0,0,1,.26-.55.73.73,0,0,1,.59-.14L15.62,4.56a.71.71,0,0,1,.56.69v20.4a.7.7,0,0,1-.26.54A.66.66,0,0,1,15.48,26.35ZM2.23,22.15l12.55,2.64v-19L2.23,3.18Z" style="fill:#00a1cc"/><path d="M15.48,26.35a.65.65,0,0,1-.44-.16.67.67,0,0,1-.26-.54V5.25a.7.7,0,0,1,.55-.69l14-2.93a.7.7,0,0,1,.84.69v20.4a.71.71,0,0,1-.55.69L15.62,26.34Zm.7-20.54v19l12.54-2.64v-19ZM29.42,22.72h0Z" style="fill:#00a1cc"/><path d="M87.55,26.48a13.17,13.17,0,1,1,13.17-13.17A13.19,13.19,0,0,1,87.55,26.48Zm0-24.94A11.77,11.77,0,1,0,99.32,13.31,11.78,11.78,0,0,0,87.55,1.54Z" style="fill:#00a1cc"/><path d="M87.55,18.38a5.08,5.08,0,1,1,5.08-5.07A5.08,5.08,0,0,1,87.55,18.38Zm0-8.75a3.68,3.68,0,1,0,3.67,3.68A3.68,3.68,0,0,0,87.55,9.63Z" style="fill:#00a1cc"/><path d="M60.63,22.63H36.21a.7.7,0,0,1-.7-.7V4.69a.7.7,0,0,1,.7-.7H60.63a.7.7,0,0,1,.7.7V21.93A.7.7,0,0,1,60.63,22.63Zm-23.72-1.4h23V5.39h-23Z" style="fill:#00a1cc"/><path d="M69.17,22.63a.68.68,0,0,1-.31-.08l-8.55-4.29a.71.71,0,0,1-.38-.62V9a.71.71,0,0,1,.38-.63l8.55-4.29a.7.7,0,0,1,1,.63V21.93a.68.68,0,0,1-.33.59A.7.7,0,0,1,69.17,22.63Zm-7.84-5.42,7.14,3.58v-15L61.33,9.41Z" style="fill:#00a1cc"/></svg>