<svg xmlns="http://www.w3.org/2000/svg" viewBox="0 0 30 30"><title>logo</title><path d="M2.46,18h.32l.55,1,.18.38h0a5.66,5.66,0,0,1,0-.6V18h.29v1.75H3.45l-.54-1-.18-.38h0c0,.19,0,.4,0,.59v.77h-.3Z" style="fill:#606c76"/><path d="M5.45,18h.31v1.75H5.45Z" style="fill:#606c76"/><path d="M7.34,18.88a.82.82,0,0,1,.8-.91.67.67,0,0,1,.5.22l-.16.2a.47.47,0,0,0-.34-.15c-.28,0-.48.24-.48.63s.18.64.48.64a.49.49,0,0,0,.37-.18l.17.2a.73.73,0,0,1-.56.25A.8.8,0,0,1,7.34,18.88Z" style="fill:#606c76"/><path d="M10.2,18h1.05v.26h-.74v.45h.63V19h-.63v.52h.77v.26H10.2Z" style="fill:#606c76"/><path d="M12.86,18h.47a.78.78,0,0,1,.85.87.78.78,0,0,1-.84.88h-.48Zm.45,1.5c.35,0,.55-.2.55-.63s-.2-.62-.55-.62h-.14V19.5Z" style="fill:#606c76"/><path d="M15.76,18h.56c.36,0,.62.11.62.43a.39.39,0,0,1-.24.38h0a.41.41,0,0,1,.34.42c0,.35-.29.51-.67.51h-.61Zm.53.72c.25,0,.35-.09.35-.24s-.11-.24-.34-.24h-.23v.48Zm0,.79c.26,0,.4-.09.4-.29s-.14-.26-.4-.26h-.26v.55Z" style="fill:#606c76"/><path d="M18.53,19.57a.2.2,0,1,1,.4,0,.2.2,0,1,1-.4,0Z" style="fill:#606c76"/><path d="M20.46,18.87c0-.57.31-.9.77-.9s.77.34.77.9-.32.91-.77.91S20.46,19.43,20.46,18.87Zm1.22,0c0-.39-.18-.63-.45-.63s-.45.24-.45.63.17.64.45.64S21.68,19.26,21.68,18.87Z" style="fill:#606c76"/><path d="M23.58,18h.59c.36,0,.64.13.64.52s-.28.55-.64.55h-.28v.68h-.31Zm.56.82c.24,0,.37-.1.37-.3s-.13-.27-.37-.27h-.25v.57Zm0,.16.23-.18.54.95h-.35Z" style="fill:#606c76"/><path d="M26.3,18.88a.83.83,0,0,1,.83-.91.72.72,0,0,1,.52.22l-.16.2a.5.5,0,0,0-.36-.15c-.31,0-.51.24-.51.63s.18.64.53.64a.44.44,0,0,0,.25-.07v-.38h-.33V18.8h.61v.77a.8.8,0,0,1-.56.21A.81.81,0,0,1,26.3,18.88Z" style="fill:#606c76"/><path d="M6.06,17H6l-3.61-.76a.18.18,0,0,1-.14-.18V10.78a.16.16,0,0,1,.07-.14.19.19,0,0,1,.15,0l3.6.76a.18.18,0,0,1,.14.18v5.27a.18.18,0,0,1-.06.14A.19.19,0,0,1,6.06,17ZM2.64,15.91l3.24.68V11.68L2.64,11Z" style="fill:#00a1cc"/><path d="M6.06,17A.15.15,0,0,1,6,17a.19.19,0,0,1-.07-.14V11.54A.18.18,0,0,1,6,11.36l3.6-.76a.2.2,0,0,1,.15,0,.19.19,0,0,1,.07.14v5.27a.18.18,0,0,1-.15.18L6.1,17Zm.18-5.31v4.91l3.24-.68V11Zm3.43,4.37Z" style="fill:#00a1cc"/><path d="M24.69,17a3.4,3.4,0,1,1,3.4-3.4A3.41,3.41,0,0,1,24.69,17Zm0-6.44a3,3,0,1,0,3,3A3,3,0,0,0,24.69,10.58Z" style="fill:#00a1cc"/><path d="M24.69,14.93A1.31,1.31,0,1,1,26,13.62,1.31,1.31,0,0,1,24.69,14.93Zm0-2.26a1,1,0,1,0,.95.95A.95.95,0,0,0,24.69,12.67Z" style="fill:#00a1cc"/><path d="M17.73,16H11.42a.18.18,0,0,1-.18-.18V11.39a.18.18,0,0,1,.18-.18h6.31a.18.18,0,0,1,.18.18v4.46A.18.18,0,0,1,17.73,16Zm-6.13-.36h6v-4.1h-6Z" style="fill:#00a1cc"/><path d="M19.94,16l-.08,0L17.65,14.9a.18.18,0,0,1-.1-.16V12.5a.18.18,0,0,1,.1-.16l2.21-1.11a.17.17,0,0,1,.17,0,.19.19,0,0,1,.09.15v4.46A.19.19,0,0,1,20,16Zm-2-1.4,1.85.92V11.69l-1.85.92Z" style="fill:#00a1cc"/></svg>